<?xml version="1.0" encoding="utf-8"?>
<!-- Generator: Adobe Illustrator 16.0.4, SVG Export Plug-In . SVG Version: 6.00 Build 0)  -->
<!DOCTYPE svg PUBLIC "-//W3C//DTD SVG 1.1//EN" "http://www.w3.org/Graphics/SVG/1.1/DTD/svg11.dtd">
<svg version="1.1" id="Layer_1" xmlns="http://www.w3.org/2000/svg" xmlns:xlink="http://www.w3.org/1999/xlink" x="0px" y="0px"
	 width="247.609px" height="50.941px" viewBox="0 0 247.609 50.941" enable-background="new 0 0 247.609 50.941"
	 xml:space="preserve">
<g>
	<g>
		<g>
			<polygon fill="#B8B8B8" points="38.125,12.838 38.125,6.988 31.153,0 6.995,0 0,6.985 0,31.102 6.995,38.083 14.665,38.083 
				14.665,43.951 21.715,50.941 42.104,50.941 49.168,43.958 49.168,25.275 52.771,25.275 52.771,12.838 			"/>
			<polygon points="30.855,0.724 37.398,7.285 37.398,13.564 52.044,13.564 52.044,24.554 48.444,24.554 48.444,43.653 
				41.806,50.216 22.013,50.216 15.395,43.653 15.395,37.361 7.292,37.361 0.726,30.8 0.726,7.285 7.292,0.724 			"/>
			<polyline fill="#FFFFFF" points="8.042,35.547 17.203,35.547 17.203,42.897 22.762,48.402 41.061,48.402 46.632,42.897 
				46.632,22.738 50.234,22.738 50.234,15.377 39.186,15.377 39.186,41.045 24.565,41.045 24.565,35.547 30.102,35.547 
				35.588,30.048 35.588,22.738 28.228,22.738 28.228,28.2 24.565,28.2 24.565,15.377 13.552,15.377 13.552,22.738 17.203,22.738 
				17.203,28.2 9.88,28.2 9.88,9.832 28.228,9.832 28.228,15.377 35.588,15.377 35.588,8.037 30.102,2.536 8.042,2.536 2.534,8.035 
				2.534,30.048 8.042,35.547 			"/>
			<polygon fill="#B8B8B8" points="23.66,34.639 29.725,34.639 34.681,29.673 34.681,23.646 29.133,23.646 29.133,29.105 
				23.66,29.105 23.66,16.284 14.457,16.284 14.457,21.836 18.113,21.836 18.113,29.105 8.978,29.105 8.978,8.926 29.133,8.926 
				29.133,14.469 34.681,14.469 34.681,8.412 29.725,3.439 8.419,3.439 3.441,8.412 3.441,29.673 8.414,34.639 18.113,34.639 
				18.113,42.518 23.134,47.498 40.687,47.498 45.729,42.516 45.729,21.836 49.327,21.836 49.327,16.284 40.091,16.284 
				40.091,41.95 23.66,41.95 			"/>
		</g>
	</g>
	<g>
		<path fill="#FFFFFF" d="M62.621,13.225v8.713c0,0.814,0.092,1.508,0.276,2.079c0.184,0.572,0.454,1.038,0.809,1.399
			c0.354,0.362,0.788,0.625,1.301,0.789s1.091,0.246,1.734,0.246c0.657,0,1.242-0.082,1.754-0.246
			c0.513-0.164,0.946-0.427,1.301-0.789c0.354-0.361,0.624-0.827,0.808-1.399c0.184-0.571,0.276-1.265,0.276-2.079v-8.713h1.34
			v9.008c0,0.724-0.102,1.41-0.305,2.061c-0.204,0.65-0.526,1.219-0.966,1.705s-1.005,0.87-1.695,1.153
			c-0.69,0.282-1.528,0.424-2.514,0.424c-0.973,0-1.803-0.142-2.493-0.424c-0.69-0.283-1.255-0.667-1.695-1.153
			c-0.44-0.486-0.762-1.055-0.966-1.705c-0.204-0.65-0.306-1.337-0.306-2.061v-9.008H62.621z"/>
		<path fill="#FFFFFF" d="M75.907,17.128v1.754h0.04c0.236-0.617,0.657-1.113,1.262-1.488c0.604-0.374,1.268-0.562,1.991-0.562
			c0.709,0,1.304,0.092,1.784,0.275c0.479,0.185,0.864,0.444,1.153,0.779s0.493,0.746,0.611,1.231
			c0.119,0.486,0.178,1.032,0.178,1.637v6.544h-1.242v-6.348c0-0.434-0.039-0.837-0.118-1.212c-0.079-0.374-0.217-0.699-0.414-0.976
			c-0.197-0.276-0.463-0.493-0.798-0.65c-0.335-0.158-0.752-0.236-1.252-0.236s-0.943,0.088-1.331,0.266s-0.716,0.421-0.985,0.729
			c-0.27,0.309-0.48,0.677-0.631,1.104c-0.151,0.428-0.233,0.891-0.247,1.39v5.934h-1.242V17.128H75.907z"/>
		<path fill="#FFFFFF" d="M86.531,13.225v1.991H85.29v-1.991H86.531z M86.531,17.128v10.171H85.29V17.128H86.531z"/>
		<path fill="#FFFFFF" d="M89.153,17.128l3.193,8.929h0.039l3.154-8.929h1.281l-3.804,10.171h-1.321l-3.922-10.171H89.153z"/>
		<path fill="#FFFFFF" d="M98.959,23.938c0.125,0.48,0.325,0.91,0.602,1.292c0.276,0.381,0.624,0.696,1.044,0.945
			c0.42,0.25,0.927,0.375,1.518,0.375c0.907,0,1.616-0.236,2.129-0.71c0.512-0.473,0.867-1.104,1.064-1.892h1.242
			c-0.263,1.156-0.746,2.05-1.449,2.681c-0.703,0.631-1.699,0.946-2.986,0.946c-0.802,0-1.495-0.142-2.08-0.424
			c-0.585-0.283-1.062-0.671-1.429-1.163c-0.368-0.493-0.641-1.064-0.818-1.715c-0.178-0.65-0.266-1.337-0.266-2.061
			c0-0.67,0.088-1.327,0.266-1.971c0.177-0.644,0.45-1.219,0.818-1.725c0.368-0.506,0.844-0.914,1.429-1.223
			c0.584-0.309,1.278-0.463,2.08-0.463c0.814,0,1.511,0.164,2.089,0.492c0.578,0.329,1.048,0.76,1.409,1.292
			s0.621,1.143,0.779,1.833c0.158,0.689,0.223,1.39,0.197,2.099h-7.826C98.772,22.995,98.834,23.458,98.959,23.938z M105.109,20.144
			c-0.151-0.434-0.365-0.818-0.641-1.153s-0.611-0.604-1.005-0.809c-0.395-0.203-0.841-0.305-1.34-0.305
			c-0.513,0-0.966,0.102-1.36,0.305c-0.394,0.204-0.729,0.474-1.005,0.809c-0.276,0.335-0.496,0.723-0.66,1.163
			c-0.165,0.44-0.273,0.891-0.325,1.351h6.583C105.342,21.03,105.26,20.577,105.109,20.144z"/>
		<path fill="#FFFFFF" d="M109.417,17.128v2.385h0.039c0.315-0.828,0.805-1.465,1.469-1.912c0.664-0.446,1.455-0.65,2.375-0.611
			v1.242c-0.565-0.026-1.078,0.049-1.537,0.227c-0.46,0.178-0.857,0.431-1.193,0.759c-0.335,0.329-0.595,0.72-0.778,1.173
			c-0.185,0.453-0.276,0.95-0.276,1.488v5.421h-1.242V17.128H109.417z"/>
		<path fill="#FFFFFF" d="M120.336,19.108c-0.145-0.282-0.338-0.516-0.582-0.699c-0.243-0.185-0.522-0.319-0.838-0.404
			c-0.315-0.086-0.65-0.128-1.005-0.128c-0.276,0-0.556,0.029-0.838,0.088c-0.283,0.06-0.542,0.158-0.779,0.296
			c-0.236,0.139-0.427,0.319-0.572,0.542c-0.145,0.224-0.217,0.5-0.217,0.828c0,0.276,0.069,0.51,0.207,0.7
			c0.138,0.19,0.312,0.352,0.522,0.482c0.21,0.132,0.44,0.24,0.69,0.325c0.25,0.086,0.479,0.155,0.69,0.207l1.656,0.375
			c0.355,0.053,0.706,0.147,1.055,0.285c0.348,0.139,0.657,0.319,0.926,0.542c0.27,0.224,0.49,0.5,0.661,0.828
			c0.17,0.329,0.256,0.717,0.256,1.163c0,0.552-0.125,1.022-0.375,1.409c-0.25,0.388-0.568,0.703-0.956,0.946
			s-0.825,0.417-1.311,0.522c-0.486,0.105-0.966,0.158-1.439,0.158c-1.196,0-2.166-0.283-2.908-0.848
			c-0.742-0.565-1.166-1.472-1.271-2.721h1.242c0.052,0.841,0.358,1.476,0.917,1.902s1.251,0.641,2.08,0.641
			c0.302,0,0.614-0.032,0.937-0.099c0.322-0.065,0.621-0.178,0.896-0.335c0.276-0.158,0.503-0.358,0.68-0.602
			s0.266-0.542,0.266-0.896c0-0.303-0.062-0.555-0.187-0.759c-0.125-0.204-0.293-0.375-0.503-0.513
			c-0.21-0.138-0.45-0.253-0.719-0.345c-0.27-0.092-0.542-0.171-0.818-0.237l-1.597-0.354c-0.407-0.104-0.782-0.227-1.124-0.364
			c-0.342-0.139-0.641-0.309-0.897-0.513c-0.256-0.204-0.457-0.453-0.601-0.749s-0.217-0.66-0.217-1.094
			c0-0.513,0.115-0.953,0.345-1.321c0.229-0.367,0.529-0.663,0.896-0.887c0.368-0.224,0.779-0.388,1.232-0.493
			c0.453-0.104,0.903-0.157,1.35-0.157c0.512,0,0.989,0.065,1.429,0.197c0.44,0.131,0.828,0.335,1.163,0.61
			c0.335,0.276,0.602,0.618,0.798,1.025c0.197,0.407,0.309,0.887,0.335,1.439h-1.242C120.56,19.723,120.481,19.392,120.336,19.108z"
			/>
		<path fill="#FFFFFF" d="M125.225,13.225v1.991h-1.242v-1.991H125.225z M125.225,17.128v10.171h-1.242V17.128H125.225z"/>
		<path fill="#FFFFFF" d="M131.65,17.128v1.044h-2.069v6.86c0,0.407,0.056,0.726,0.167,0.956c0.111,0.229,0.391,0.358,0.838,0.384
			c0.354,0,0.71-0.02,1.064-0.059v1.045c-0.185,0-0.368,0.006-0.552,0.02c-0.185,0.013-0.368,0.02-0.552,0.02
			c-0.828,0-1.406-0.161-1.735-0.483c-0.328-0.321-0.486-0.916-0.473-1.783v-6.959h-1.774v-1.044h1.774v-3.056h1.242v3.056H131.65z"
			/>
		<path fill="#FFFFFF" d="M133.622,17.128l3.351,8.673l3.135-8.673h1.241l-4.415,11.708c-0.185,0.434-0.355,0.792-0.513,1.074
			c-0.157,0.283-0.332,0.506-0.522,0.671c-0.19,0.164-0.414,0.282-0.67,0.354c-0.257,0.072-0.582,0.108-0.976,0.108
			c-0.25-0.013-0.443-0.023-0.582-0.029c-0.138-0.007-0.26-0.029-0.364-0.069V29.9c0.145,0.026,0.285,0.05,0.424,0.069
			c0.138,0.02,0.279,0.029,0.424,0.029c0.275,0,0.502-0.039,0.68-0.118s0.332-0.188,0.463-0.325
			c0.132-0.138,0.243-0.306,0.336-0.503c0.092-0.196,0.19-0.413,0.295-0.65l0.434-1.143l-4.061-10.132H133.622z"/>
		<path fill="#FFFFFF" d="M154.408,17.266c0.598,0.289,1.101,0.677,1.508,1.163s0.716,1.055,0.927,1.705
			c0.21,0.65,0.315,1.344,0.315,2.079c0,0.736-0.105,1.43-0.315,2.08c-0.211,0.65-0.52,1.219-0.927,1.705s-0.91,0.87-1.508,1.153
			c-0.599,0.282-1.285,0.424-2.061,0.424s-1.462-0.142-2.06-0.424c-0.598-0.283-1.101-0.667-1.508-1.153s-0.717-1.055-0.927-1.705
			s-0.315-1.344-0.315-2.08c0-0.735,0.105-1.429,0.315-2.079s0.52-1.219,0.927-1.705s0.91-0.874,1.508-1.163s1.284-0.434,2.06-0.434
			S153.81,16.977,154.408,17.266z M150.791,18.251c-0.447,0.25-0.818,0.578-1.114,0.985c-0.295,0.408-0.519,0.871-0.67,1.39
			c-0.151,0.52-0.227,1.049-0.227,1.587c0,0.539,0.075,1.068,0.227,1.587c0.151,0.52,0.375,0.982,0.67,1.39
			c0.296,0.407,0.667,0.736,1.114,0.985c0.446,0.25,0.966,0.375,1.557,0.375c0.592,0,1.11-0.125,1.558-0.375
			c0.446-0.249,0.818-0.578,1.113-0.985c0.296-0.407,0.52-0.87,0.671-1.39c0.15-0.519,0.227-1.048,0.227-1.587
			c0-0.538-0.076-1.067-0.227-1.587c-0.151-0.519-0.375-0.981-0.671-1.39c-0.295-0.407-0.667-0.735-1.113-0.985
			c-0.447-0.249-0.966-0.374-1.558-0.374C151.757,17.877,151.237,18.002,150.791,18.251z"/>
		<path fill="#FFFFFF" d="M160.923,18.172v9.127h-1.242v-9.127h-1.734v-1.044h1.734v-0.927c0-0.434,0.033-0.834,0.099-1.202
			s0.19-0.684,0.375-0.946c0.184-0.263,0.437-0.467,0.759-0.611s0.732-0.217,1.231-0.217c0.185,0,0.355,0.007,0.513,0.02
			c0.158,0.014,0.335,0.033,0.532,0.06v1.064c-0.171-0.026-0.328-0.05-0.473-0.069s-0.289-0.029-0.434-0.029
			c-0.342,0-0.604,0.053-0.789,0.157c-0.184,0.105-0.318,0.247-0.403,0.424c-0.086,0.178-0.136,0.385-0.148,0.621
			s-0.02,0.493-0.02,0.769v0.888h2.011v1.044H160.923z"/>
		<path fill="#FFFFFF" d="M179.54,16.033c-0.27-0.427-0.598-0.785-0.985-1.074s-0.814-0.509-1.281-0.66
			c-0.467-0.15-0.956-0.227-1.469-0.227c-0.933,0-1.734,0.178-2.404,0.532c-0.671,0.354-1.22,0.825-1.646,1.409
			c-0.427,0.585-0.742,1.245-0.946,1.981c-0.203,0.736-0.305,1.491-0.305,2.267c0,0.763,0.102,1.515,0.305,2.257
			c0.204,0.743,0.52,1.406,0.946,1.991s0.976,1.055,1.646,1.409c0.67,0.354,1.472,0.532,2.404,0.532
			c0.657,0,1.249-0.118,1.774-0.354s0.979-0.559,1.36-0.966c0.381-0.407,0.689-0.884,0.926-1.43
			c0.237-0.545,0.388-1.133,0.454-1.764h1.34c-0.092,0.867-0.296,1.649-0.61,2.346c-0.315,0.696-0.724,1.288-1.223,1.773
			c-0.5,0.486-1.088,0.861-1.764,1.124c-0.678,0.263-1.43,0.395-2.258,0.395c-1.104,0-2.073-0.201-2.907-0.602
			c-0.835-0.4-1.527-0.937-2.079-1.606c-0.553-0.67-0.967-1.445-1.242-2.326c-0.276-0.88-0.414-1.807-0.414-2.779
			s0.138-1.898,0.414-2.779c0.275-0.88,0.689-1.659,1.242-2.336c0.552-0.677,1.244-1.216,2.079-1.616
			c0.834-0.4,1.804-0.602,2.907-0.602c0.671,0,1.324,0.099,1.962,0.296c0.637,0.197,1.215,0.489,1.734,0.877
			c0.519,0.388,0.953,0.864,1.301,1.43c0.349,0.564,0.568,1.215,0.66,1.951h-1.34C180.004,16.943,179.81,16.461,179.54,16.033z"/>
		<path fill="#FFFFFF" d="M189.83,17.266c0.598,0.289,1.101,0.677,1.508,1.163s0.716,1.055,0.927,1.705
			c0.21,0.65,0.315,1.344,0.315,2.079c0,0.736-0.105,1.43-0.315,2.08c-0.211,0.65-0.52,1.219-0.927,1.705s-0.91,0.87-1.508,1.153
			c-0.599,0.282-1.285,0.424-2.061,0.424s-1.462-0.142-2.06-0.424c-0.598-0.283-1.101-0.667-1.508-1.153s-0.717-1.055-0.927-1.705
			s-0.315-1.344-0.315-2.08c0-0.735,0.105-1.429,0.315-2.079s0.52-1.219,0.927-1.705s0.91-0.874,1.508-1.163s1.284-0.434,2.06-0.434
			S189.231,16.977,189.83,17.266z M186.213,18.251c-0.447,0.25-0.818,0.578-1.114,0.985c-0.295,0.408-0.519,0.871-0.67,1.39
			c-0.151,0.52-0.227,1.049-0.227,1.587c0,0.539,0.075,1.068,0.227,1.587c0.151,0.52,0.375,0.982,0.67,1.39
			c0.296,0.407,0.667,0.736,1.114,0.985c0.446,0.25,0.966,0.375,1.557,0.375c0.592,0,1.11-0.125,1.558-0.375
			c0.446-0.249,0.818-0.578,1.113-0.985c0.296-0.407,0.52-0.87,0.671-1.39c0.15-0.519,0.227-1.048,0.227-1.587
			c0-0.538-0.076-1.067-0.227-1.587c-0.151-0.519-0.375-0.981-0.671-1.39c-0.295-0.407-0.667-0.735-1.113-0.985
			c-0.447-0.249-0.966-0.374-1.558-0.374C187.179,17.877,186.659,18.002,186.213,18.251z"/>
		<path fill="#FFFFFF" d="M195.694,13.225v14.074h-1.242V13.225H195.694z"/>
		<path fill="#FFFFFF" d="M204.437,17.266c0.598,0.289,1.101,0.677,1.508,1.163s0.716,1.055,0.927,1.705
			c0.21,0.65,0.315,1.344,0.315,2.079c0,0.736-0.105,1.43-0.315,2.08c-0.211,0.65-0.52,1.219-0.927,1.705s-0.91,0.87-1.508,1.153
			c-0.599,0.282-1.285,0.424-2.061,0.424s-1.462-0.142-2.06-0.424c-0.598-0.283-1.101-0.667-1.508-1.153s-0.717-1.055-0.927-1.705
			s-0.315-1.344-0.315-2.08c0-0.735,0.105-1.429,0.315-2.079s0.52-1.219,0.927-1.705s0.91-0.874,1.508-1.163s1.284-0.434,2.06-0.434
			S203.838,16.977,204.437,17.266z M200.819,18.251c-0.447,0.25-0.818,0.578-1.114,0.985c-0.295,0.408-0.519,0.871-0.67,1.39
			c-0.151,0.52-0.227,1.049-0.227,1.587c0,0.539,0.075,1.068,0.227,1.587c0.151,0.52,0.375,0.982,0.67,1.39
			c0.296,0.407,0.667,0.736,1.114,0.985c0.446,0.25,0.966,0.375,1.557,0.375c0.592,0,1.11-0.125,1.558-0.375
			c0.446-0.249,0.818-0.578,1.113-0.985c0.296-0.407,0.52-0.87,0.671-1.39c0.15-0.519,0.227-1.048,0.227-1.587
			c0-0.538-0.076-1.067-0.227-1.587c-0.151-0.519-0.375-0.981-0.671-1.39c-0.295-0.407-0.667-0.735-1.113-0.985
			c-0.447-0.249-0.966-0.374-1.558-0.374C201.785,17.877,201.266,18.002,200.819,18.251z"/>
		<path fill="#FFFFFF" d="M210.183,17.128v2.385h0.039c0.315-0.828,0.805-1.465,1.469-1.912c0.663-0.446,1.455-0.65,2.375-0.611
			v1.242c-0.564-0.026-1.077,0.049-1.537,0.227s-0.857,0.431-1.192,0.759c-0.336,0.329-0.595,0.72-0.779,1.173
			c-0.184,0.453-0.275,0.95-0.275,1.488v5.421h-1.242V17.128H210.183z"/>
		<path fill="#FFFFFF" d="M215.504,18.704c0.211-0.434,0.496-0.788,0.858-1.064c0.36-0.275,0.784-0.479,1.271-0.61
			c0.486-0.132,1.025-0.197,1.617-0.197c0.446,0,0.894,0.043,1.34,0.128c0.447,0.086,0.848,0.246,1.202,0.483
			c0.355,0.236,0.645,0.568,0.868,0.995c0.223,0.427,0.335,0.982,0.335,1.666v5.4c0,0.5,0.243,0.749,0.729,0.749
			c0.145,0,0.275-0.026,0.394-0.079v1.045c-0.145,0.026-0.272,0.047-0.384,0.06c-0.112,0.013-0.254,0.02-0.424,0.02
			c-0.315,0-0.568-0.043-0.759-0.128c-0.191-0.086-0.339-0.207-0.444-0.365c-0.104-0.157-0.174-0.345-0.207-0.562
			c-0.032-0.217-0.049-0.456-0.049-0.72h-0.039c-0.224,0.329-0.45,0.621-0.681,0.878c-0.229,0.256-0.486,0.47-0.769,0.641
			s-0.604,0.302-0.966,0.394s-0.792,0.139-1.291,0.139c-0.474,0-0.917-0.057-1.331-0.168c-0.413-0.111-0.775-0.289-1.084-0.532
			s-0.552-0.552-0.729-0.927c-0.177-0.374-0.266-0.817-0.266-1.33c0-0.71,0.157-1.265,0.473-1.666
			c0.315-0.4,0.732-0.706,1.252-0.916s1.104-0.358,1.755-0.444c0.65-0.085,1.311-0.167,1.98-0.246
			c0.263-0.026,0.493-0.059,0.69-0.099c0.196-0.039,0.361-0.108,0.492-0.207c0.132-0.099,0.233-0.232,0.306-0.403
			s0.108-0.395,0.108-0.671c0-0.42-0.069-0.766-0.207-1.034c-0.138-0.27-0.328-0.483-0.571-0.642
			c-0.243-0.157-0.526-0.266-0.848-0.325c-0.322-0.059-0.667-0.088-1.035-0.088c-0.788,0-1.433,0.187-1.932,0.562
			c-0.5,0.374-0.763,0.976-0.788,1.804h-1.242C215.169,19.65,215.294,19.138,215.504,18.704z M221.714,21.74
			c-0.079,0.145-0.23,0.25-0.454,0.315c-0.223,0.065-0.42,0.111-0.591,0.138c-0.525,0.092-1.068,0.175-1.626,0.246
			c-0.559,0.073-1.068,0.182-1.528,0.325c-0.46,0.146-0.838,0.353-1.133,0.621c-0.296,0.27-0.443,0.654-0.443,1.153
			c0,0.315,0.062,0.595,0.187,0.838s0.293,0.453,0.503,0.631s0.453,0.312,0.729,0.404c0.275,0.092,0.559,0.138,0.848,0.138
			c0.473,0,0.927-0.072,1.36-0.217s0.811-0.354,1.133-0.631s0.578-0.611,0.769-1.005c0.19-0.395,0.286-0.841,0.286-1.341V21.74
			H221.714z"/>
		<path fill="#FFFFFF" d="M233.284,27.299v-1.932h-0.039c-0.132,0.328-0.325,0.631-0.582,0.906c-0.256,0.276-0.549,0.51-0.877,0.7
			s-0.68,0.338-1.055,0.443c-0.374,0.105-0.746,0.158-1.113,0.158c-0.775,0-1.449-0.142-2.021-0.424
			c-0.571-0.283-1.048-0.671-1.429-1.163c-0.382-0.493-0.664-1.064-0.848-1.715c-0.185-0.65-0.276-1.337-0.276-2.061
			c0-0.723,0.092-1.409,0.276-2.06c0.184-0.65,0.466-1.222,0.848-1.715c0.381-0.493,0.857-0.884,1.429-1.173
			s1.245-0.434,2.021-0.434c0.381,0,0.752,0.046,1.113,0.138s0.7,0.233,1.016,0.424s0.595,0.424,0.838,0.7
			c0.243,0.275,0.43,0.598,0.562,0.966h0.039v-5.835h1.242v14.074H233.284z M226.474,23.78c0.125,0.52,0.322,0.982,0.592,1.39
			s0.614,0.739,1.035,0.995c0.42,0.257,0.926,0.385,1.518,0.385c0.657,0,1.212-0.128,1.666-0.385
			c0.453-0.256,0.82-0.588,1.104-0.995c0.282-0.407,0.486-0.87,0.611-1.39c0.124-0.519,0.187-1.041,0.187-1.567
			c0-0.525-0.062-1.048-0.187-1.566c-0.125-0.52-0.329-0.982-0.611-1.39c-0.283-0.407-0.65-0.739-1.104-0.996
			c-0.454-0.256-1.009-0.384-1.666-0.384c-0.592,0-1.098,0.128-1.518,0.384c-0.421,0.257-0.766,0.589-1.035,0.996
			s-0.467,0.87-0.592,1.39c-0.125,0.519-0.187,1.041-0.187,1.566C226.287,22.739,226.349,23.262,226.474,23.78z"/>
		<path fill="#FFFFFF" d="M243.15,17.266c0.598,0.289,1.101,0.677,1.508,1.163s0.716,1.055,0.927,1.705
			c0.21,0.65,0.315,1.344,0.315,2.079c0,0.736-0.105,1.43-0.315,2.08c-0.211,0.65-0.52,1.219-0.927,1.705s-0.91,0.87-1.508,1.153
			c-0.599,0.282-1.285,0.424-2.061,0.424s-1.462-0.142-2.06-0.424c-0.598-0.283-1.101-0.667-1.508-1.153s-0.717-1.055-0.927-1.705
			s-0.315-1.344-0.315-2.08c0-0.735,0.105-1.429,0.315-2.079s0.52-1.219,0.927-1.705s0.91-0.874,1.508-1.163s1.284-0.434,2.06-0.434
			S242.552,16.977,243.15,17.266z M239.533,18.251c-0.447,0.25-0.818,0.578-1.114,0.985c-0.295,0.408-0.519,0.871-0.67,1.39
			c-0.151,0.52-0.227,1.049-0.227,1.587c0,0.539,0.075,1.068,0.227,1.587c0.151,0.52,0.375,0.982,0.67,1.39
			c0.296,0.407,0.667,0.736,1.114,0.985c0.446,0.25,0.966,0.375,1.557,0.375c0.592,0,1.11-0.125,1.558-0.375
			c0.446-0.249,0.818-0.578,1.113-0.985c0.296-0.407,0.52-0.87,0.671-1.39c0.15-0.519,0.227-1.048,0.227-1.587
			c0-0.538-0.076-1.067-0.227-1.587c-0.151-0.519-0.375-0.981-0.671-1.39c-0.295-0.407-0.667-0.735-1.113-0.985
			c-0.447-0.249-0.966-0.374-1.558-0.374C240.499,17.877,239.979,18.002,239.533,18.251z"/>
		<path fill="#FFFFFF" d="M67.372,35.879c0.591,0,1.16,0.056,1.705,0.168c0.545,0.111,1.025,0.302,1.439,0.571
			c0.414,0.27,0.746,0.624,0.996,1.064c0.25,0.44,0.375,0.989,0.375,1.646c0,0.368-0.059,0.727-0.177,1.074
			c-0.119,0.349-0.286,0.664-0.503,0.946c-0.217,0.283-0.473,0.522-0.769,0.72c-0.296,0.197-0.628,0.335-0.996,0.414v0.039
			c0.907,0.118,1.629,0.49,2.168,1.114c0.539,0.624,0.808,1.396,0.808,2.315c0,0.224-0.02,0.477-0.059,0.76
			c-0.04,0.282-0.118,0.571-0.237,0.867c-0.118,0.295-0.289,0.588-0.512,0.877c-0.224,0.289-0.522,0.542-0.897,0.759
			s-0.834,0.395-1.38,0.532s-1.199,0.207-1.961,0.207h-5.953V35.879H67.372z M67.372,42.049c0.539,0,1.005-0.062,1.4-0.188
			c0.394-0.125,0.722-0.296,0.985-0.513c0.263-0.217,0.46-0.47,0.591-0.759s0.197-0.598,0.197-0.927
			c0-1.761-1.058-2.641-3.174-2.641h-4.612v5.026H67.372z M67.372,48.81c0.5,0,0.973-0.042,1.419-0.128
			c0.447-0.085,0.841-0.239,1.183-0.463s0.611-0.522,0.808-0.897c0.197-0.374,0.296-0.844,0.296-1.409
			c0-0.906-0.319-1.587-0.956-2.04c-0.638-0.453-1.554-0.68-2.75-0.68h-4.612v5.617H67.372z"/>
		<path fill="#FFFFFF" d="M80.687,39.92c0.598,0.289,1.101,0.677,1.508,1.163c0.407,0.486,0.716,1.055,0.926,1.705
			c0.21,0.65,0.315,1.344,0.315,2.079c0,0.736-0.105,1.43-0.315,2.08c-0.21,0.65-0.519,1.219-0.926,1.705
			c-0.408,0.486-0.91,0.87-1.508,1.153c-0.598,0.282-1.285,0.424-2.06,0.424c-0.775,0-1.462-0.142-2.06-0.424
			c-0.598-0.283-1.101-0.667-1.508-1.153c-0.408-0.486-0.716-1.055-0.927-1.705c-0.21-0.65-0.315-1.344-0.315-2.08
			c0-0.735,0.105-1.429,0.315-2.079c0.21-0.65,0.519-1.219,0.927-1.705c0.407-0.486,0.91-0.874,1.508-1.163s1.285-0.434,2.06-0.434
			C79.402,39.486,80.088,39.631,80.687,39.92z M77.07,40.905c-0.447,0.25-0.818,0.578-1.114,0.985
			c-0.296,0.408-0.52,0.871-0.67,1.39c-0.151,0.52-0.227,1.049-0.227,1.587c0,0.539,0.075,1.068,0.227,1.587
			c0.151,0.52,0.375,0.982,0.67,1.39c0.295,0.407,0.667,0.736,1.114,0.985c0.446,0.25,0.966,0.375,1.557,0.375
			s1.11-0.125,1.557-0.375c0.447-0.249,0.818-0.578,1.114-0.985c0.295-0.407,0.519-0.87,0.67-1.39
			c0.151-0.519,0.227-1.048,0.227-1.587c0-0.538-0.076-1.067-0.227-1.587c-0.151-0.519-0.375-0.981-0.67-1.39
			c-0.296-0.407-0.667-0.735-1.114-0.985c-0.447-0.249-0.966-0.374-1.557-0.374S77.516,40.656,77.07,40.905z"/>
		<path fill="#FFFFFF" d="M92.386,49.953V48.12h-0.039c-0.329,0.684-0.805,1.206-1.429,1.567c-0.625,0.36-1.318,0.542-2.08,0.542
			c-0.644,0-1.193-0.089-1.646-0.267c-0.454-0.178-0.821-0.431-1.104-0.759s-0.49-0.729-0.621-1.202
			c-0.132-0.474-0.197-1.012-0.197-1.616v-6.604h1.242v6.623c0.026,0.92,0.24,1.616,0.641,2.089c0.401,0.474,1.094,0.71,2.08,0.71
			c0.539,0,0.999-0.115,1.38-0.345c0.381-0.23,0.696-0.535,0.946-0.917c0.25-0.381,0.434-0.818,0.552-1.311
			c0.118-0.493,0.177-0.995,0.177-1.508v-5.342h1.242v10.171H92.386z"/>
		<path fill="#FFFFFF" d="M97.136,35.879v14.074h-1.242V35.879H97.136z"/>
		<path fill="#FFFFFF" d="M107.327,49.953v-1.932h-0.04c-0.131,0.328-0.325,0.631-0.582,0.906c-0.256,0.276-0.549,0.51-0.877,0.7
			c-0.329,0.19-0.68,0.338-1.055,0.443s-0.746,0.158-1.114,0.158c-0.775,0-1.449-0.142-2.021-0.424
			c-0.572-0.283-1.048-0.671-1.429-1.163c-0.381-0.493-0.664-1.064-0.848-1.715s-0.276-1.337-0.276-2.061
			c0-0.723,0.092-1.409,0.276-2.06s0.466-1.222,0.848-1.715c0.381-0.493,0.857-0.884,1.429-1.173s1.245-0.434,2.021-0.434
			c0.381,0,0.752,0.046,1.114,0.138c0.361,0.092,0.7,0.233,1.015,0.424s0.594,0.424,0.838,0.7c0.243,0.275,0.43,0.598,0.562,0.966
			h0.04v-5.835h1.242v14.074H107.327z M100.517,46.435c0.125,0.52,0.322,0.982,0.591,1.39c0.269,0.407,0.614,0.739,1.035,0.995
			c0.42,0.257,0.927,0.385,1.518,0.385c0.657,0,1.212-0.128,1.666-0.385c0.454-0.256,0.821-0.588,1.104-0.995
			c0.282-0.407,0.486-0.87,0.611-1.39c0.125-0.519,0.188-1.041,0.188-1.567c0-0.525-0.062-1.048-0.188-1.566
			c-0.125-0.52-0.329-0.982-0.611-1.39c-0.283-0.407-0.65-0.739-1.104-0.996c-0.453-0.256-1.009-0.384-1.666-0.384
			c-0.591,0-1.098,0.128-1.518,0.384c-0.42,0.257-0.766,0.589-1.035,0.996c-0.27,0.407-0.467,0.87-0.591,1.39
			c-0.125,0.519-0.188,1.041-0.188,1.566C100.329,45.394,100.392,45.916,100.517,46.435z"/>
		<path fill="#FFFFFF" d="M111.752,46.592c0.125,0.48,0.325,0.91,0.602,1.292c0.276,0.381,0.624,0.696,1.044,0.945
			c0.42,0.25,0.927,0.375,1.518,0.375c0.907,0,1.616-0.236,2.129-0.71c0.512-0.473,0.867-1.104,1.064-1.892h1.242
			c-0.263,1.156-0.746,2.05-1.449,2.681c-0.703,0.631-1.699,0.946-2.986,0.946c-0.802,0-1.495-0.142-2.08-0.424
			c-0.585-0.283-1.062-0.671-1.429-1.163c-0.368-0.493-0.641-1.064-0.818-1.715c-0.178-0.65-0.266-1.337-0.266-2.061
			c0-0.67,0.088-1.327,0.266-1.971c0.177-0.644,0.45-1.219,0.818-1.725c0.368-0.506,0.844-0.914,1.429-1.223
			c0.584-0.309,1.278-0.463,2.08-0.463c0.814,0,1.511,0.164,2.089,0.492c0.578,0.329,1.048,0.76,1.409,1.292
			s0.621,1.143,0.779,1.833c0.158,0.689,0.223,1.39,0.197,2.099h-7.826C111.565,45.649,111.627,46.112,111.752,46.592z
			 M117.902,42.798c-0.151-0.434-0.365-0.818-0.641-1.153s-0.611-0.604-1.005-0.809c-0.395-0.203-0.841-0.305-1.34-0.305
			c-0.513,0-0.966,0.102-1.36,0.305c-0.394,0.204-0.729,0.474-1.005,0.809c-0.276,0.335-0.496,0.723-0.66,1.163
			c-0.165,0.44-0.273,0.891-0.325,1.351h6.583C118.135,43.685,118.053,43.231,117.902,42.798z"/>
		<path fill="#FFFFFF" d="M122.209,39.782v2.385h0.039c0.315-0.828,0.805-1.465,1.469-1.912c0.664-0.446,1.455-0.65,2.375-0.611
			v1.242c-0.564-0.026-1.077,0.049-1.537,0.227c-0.46,0.178-0.857,0.431-1.193,0.759c-0.335,0.329-0.595,0.72-0.778,1.173
			c-0.185,0.453-0.276,0.95-0.276,1.488v5.421h-1.242V39.782H122.209z"/>
	</g>
</g>
</svg>
